<svg xmlns="http://www.w3.org/2000/svg" viewBox="0 0 1920 600">
  <!-- Background -->
  <defs>
    <linearGradient id="skyGrad" x1="0%" y1="0%" x2="0%" y2="100%">
      <stop offset="0%" style="stop-color:#87CEEB;stop-opacity:1" />
      <stop offset="100%" style="stop-color:#E0F6FF;stop-opacity:1" />
    </linearGradient>
    <linearGradient id="fieldGrad" x1="0%" y1="0%" x2="0%" y2="100%">
      <stop offset="0%" style="stop-color:#90EE90;stop-opacity:1" />
      <stop offset="100%" style="stop-color:#228B22;stop-opacity:1" />
    </linearGradient>
  </defs>
  
  <!-- Sky -->
  <rect fill="url(#skyGrad)" width="1920" height="400"/>
  
  <!-- Sun -->
  <circle cx="1700" cy="100" r="60" fill="#FFD700" opacity="0.8"/>
  
  <!-- Fields -->
  <ellipse cx="960" cy="500" rx="1000" ry="150" fill="url(#fieldGrad)"/>
  
  <!-- Workers (stylized) -->
  <g transform="translate(400, 380)">
    <!-- Worker 1 -->
    <circle cx="0" cy="0" r="20" fill="#FF9933"/>
    <rect x="-10" y="20" width="20" height="40" rx="5" fill="#138808"/>
    <rect x="-20" y="30" width="10" height="25" fill="#FF9933"/>
    <rect x="10" y="30" width="10" height="25" fill="#FF9933"/>
    <!-- Tool -->
    <line x1="25" y1="35" x2="50" y2="50" stroke="#8B4513" stroke-width="3"/>
  </g>
  
  <g transform="translate(700, 390)">
    <!-- Worker 2 -->
    <circle cx="0" cy="0" r="20" fill="#FF9933"/>
    <rect x="-10" y="20" width="20" height="40" rx="5" fill="#138808"/>
    <rect x="-20" y="30" width="10" height="25" fill="#FF9933"/>
    <rect x="10" y="30" width="10" height="25" fill="#FF9933"/>
  </g>
  
  <g transform="translate(1200, 385)">
    <!-- Worker 3 -->
    <circle cx="0" cy="0" r="20" fill="#FF9933"/>
    <rect x="-10" y="20" width="20" height="40" rx="5" fill="#138808"/>
    <rect x="-20" y="30" width="10" height="25" fill="#FF9933"/>
    <rect x="10" y="30" width="10" height="25" fill="#FF9933"/>
  </g>
  
  <!-- Plants/Crops -->
  <g opacity="0.6">
    <path d="M 100 450 Q 110 420 100 400" stroke="#2F4F2F" stroke-width="2" fill="none"/>
    <path d="M 300 460 Q 310 430 300 410" stroke="#2F4F2F" stroke-width="2" fill="none"/>
    <path d="M 500 455 Q 510 425 500 405" stroke="#2F4F2F" stroke-width="2" fill="none"/>
    <path d="M 1400 450 Q 1410 420 1400 400" stroke="#2F4F2F" stroke-width="2" fill="none"/>
    <path d="M 1600 460 Q 1610 430 1600 410" stroke="#2F4F2F" stroke-width="2" fill="none"/>
  </g>
</svg>






