<svg xmlns="http://www.w3.org/2000/svg" viewBox="0 0 400 300">
  <!-- Simple village scene -->
  <defs>
    <linearGradient id="sky" x1="0%" y1="0%" x2="0%" y2="100%">
      <stop offset="0%" style="stop-color:#87CEEB;stop-opacity:1" />
      <stop offset="100%" style="stop-color:#E0F6FF;stop-opacity:1" />
    </linearGradient>
  </defs>
  
  <!-- Sky -->
  <rect fill="url(#sky)" width="400" height="200"/>
  
  <!-- Ground -->
  <rect y="200" fill="#90EE90" width="400" height="100"/>
  
  <!-- Houses -->
  <!-- House 1 -->
  <rect x="50" y="150" width="60" height="50" fill="#D2691E"/>
  <polygon points="50,150 80,120 110,150" fill="#8B4513"/>
  <rect x="65" y="170" width="15" height="30" fill="#654321"/>
  <rect x="85" y="160" width="15" height="15" fill="#87CEEB"/>
  
  <!-- House 2 -->
  <rect x="150" y="160" width="70" height="40" fill="#CD853F"/>
  <polygon points="150,160 185,135 220,160" fill="#A0522D"/>
  <rect x="170" y="175" width="18" height="25" fill="#654321"/>
  <rect x="195" y="170" width="15" height="15" fill="#87CEEB"/>
  
  <!-- Trees -->
  <rect x="280" y="170" width="10" height="30" fill="#8B4513"/>
  <circle cx="285" cy="160" r="25" fill="#228B22"/>
  
  <rect x="330" y="175" width="8" height="25" fill="#8B4513"/>
  <circle cx="334" cy="167" r="20" fill="#2F4F2F"/>
  
  <!-- Path -->
  <path d="M 0 220 Q 200 210 400 230" fill="#D2B48C" opacity="0.6"/>
</svg>


